<svg width="417" height="202" viewBox="0 0 417 202" fill="none" xmlns="http://www.w3.org/2000/svg">
<path d="M113.667 6.35318C150.271 24.1128 180.971 102.034 228.202 111.537C275.433 121.041 290.783 62.3605 335.652 62.3605C367.701 62.3605 399.147 122.296 414.501 156.546C420.316 169.517 415.587 185.089 404.41 191.895C391.249 199.908 374.883 192.413 368.107 177.097C358.916 156.327 344.644 131.769 327.387 127.93C296.687 121.1 274.252 193.418 209.309 171.643C144.367 149.867 130.198 66.4585 98.3167 62.3605C66.4358 58.2624 54.628 85.5829 34.5549 136.126C25.72 158.371 18.2576 178.765 12.671 194.627C6.7747 211.368 -11.0167 218.001 -24.018 207.972C-32.1591 201.693 -36.0874 190.391 -32.8868 179.694C-27.2632 160.898 -15.3574 127.633 8.57784 81.4823C47.5434 6.35034 77.0627 -11.4065 113.667 6.35318Z" fill="#FAFCFF"/>
<path d="M335.673 62.3582C320.491 62.3582 308.689 69.0763 297.888 77.5981L293.165 81.4825C293.165 81.4825 316.961 77.5981 331.63 77.5981H365.373C355.858 68.3374 345.796 62.3582 335.673 62.3582Z" fill="#F4F7FD"/>
<path d="M368.101 177.099C374.878 192.415 391.244 199.91 404.405 191.896C415.582 185.091 420.311 169.519 414.496 156.548C408.719 143.661 400.664 127.138 391.156 111.539C391.156 111.539 388.78 123.833 374.397 134.043C366.071 139.953 361.769 146.561 359.622 151.079C358.041 154.405 358.714 158.31 360.467 161.519C363.296 166.7 365.851 172.013 368.101 177.099Z" fill="#F4F7FD"/>
<path d="M209.3 171.641C247.155 184.333 270.567 165.056 289.592 148.119C289.592 148.119 245.49 162.159 207.707 145.767C169.924 129.374 151.538 125.196 151.538 125.196C165.622 144.518 183.434 162.968 209.3 171.641Z" fill="#F0F3FA"/>
<path d="M146.697 36.4058C135.809 23.1582 125.024 11.8616 113.67 6.35305C91.4307 -4.43724 71.8068 -2.1168 51.0901 18.2169C51.0901 18.2169 53.6354 18.3555 57.7936 18.6674C67.1455 19.3691 84.6558 20.9477 99.7158 23.7987C121.472 27.9173 146.697 36.4058 146.697 36.4058Z" fill="#F4F7FD"/>
<path d="M12.671 194.631C18.2576 178.769 25.72 158.376 34.5548 136.13L13.8213 133.833C-3.27859 131.938 -19.5925 142.808 -26.3582 161.075C-29.1766 168.684 -31.717 175.789 -32.8868 179.699C-36.0874 190.396 -32.1591 201.697 -24.018 207.977C-11.0167 218.005 6.7747 211.372 12.671 194.631Z" fill="#F4F7FD"/>
</svg>
