<svg width="424" height="426" viewBox="0 0 424 426" fill="none" xmlns="http://www.w3.org/2000/svg">
<path d="M39.5549 43.5234C39.8767 41.9869 41.0675 40.7806 42.5997 40.4391L64.5551 35.545C66.0505 35.2117 67.605 35.7618 68.5578 36.9617L77.548 48.2826C79.0904 50.2249 82.0104 50.3098 83.663 48.4604L99.7555 30.4522C100.815 29.2664 101.072 27.5656 100.409 26.12L96.7533 18.1452C95.6025 15.6348 97.2816 12.7411 100.032 12.4944L116.907 10.9808C117.3 10.9456 117.686 10.8523 118.052 10.704L141.424 1.23335C141.806 1.07871 142.209 0.983925 142.62 0.952344L152.847 0.165646C154.008 0.0762928 155 0.994734 155 2.15975V12.4398C155 12.8114 154.948 13.1813 154.846 13.5387L152.154 22.9613C152.052 23.3187 152 23.6886 152 24.0602V31.9651C152 32.9532 152.366 33.9064 153.027 34.6409L158.962 41.236C160.166 42.5735 162.115 42.9426 163.724 42.1378L175 36.5L197.169 28.7889C197.717 28.5986 198.299 28.5294 198.875 28.5861L226.012 31.2553C227.534 31.405 229.009 30.6735 229.81 29.3709L239.489 13.6434C241.349 10.6199 245.933 11.3383 246.78 14.786L251.752 35.0371C252.191 36.8257 253.795 38.0833 255.637 38.0833H256.715C259.208 38.0833 261.093 40.3393 260.651 42.7929L258.749 53.345C258.342 55.6025 259.913 57.7391 262.189 58.0237L277.462 59.9328C277.819 59.9774 278.168 60.0699 278.501 60.2079L310.5 73.5L349.243 90.1742C349.742 90.3891 350.28 90.5 350.824 90.5H365.63C366.518 90.5 367.381 90.7955 368.082 91.34L399.702 115.88C400.226 116.287 400.842 116.557 401.497 116.666L413.061 118.594C414.556 118.843 415.781 119.915 416.227 121.363L423.132 143.803C423.371 144.582 423.367 145.416 423.12 146.193L415.767 169.279C415.591 169.83 415.298 170.337 414.907 170.765L386.109 202.241C385.118 203.325 383.612 203.778 382.188 203.422L381.025 203.131C378.646 202.536 376.297 204.202 376.071 206.644L373.536 234.108C373.512 234.369 373.463 234.626 373.388 234.877L361.637 274.538C361.546 274.845 361.418 275.14 361.257 275.417L347.819 298.453C347.608 298.816 347.341 299.142 347.028 299.422L334.638 310.484C333.905 311.138 332.957 311.5 331.974 311.5H310.163C309.403 311.5 308.66 311.716 308.019 312.123L278.661 330.763C277.908 331.241 277.337 331.956 277.038 332.795L270 352.5L266.315 364.937C266.109 365.633 265.717 366.259 265.183 366.749L254.693 376.365C254.237 376.783 253.884 377.3 253.663 377.877L246.764 395.813C246.589 396.267 246.334 396.686 246.009 397.048L227.478 417.717C225.029 420.449 220.5 418.716 220.5 415.046V411.09C220.5 409.514 219.574 408.085 218.136 407.44L206.485 402.217C206.163 402.073 205.862 401.887 205.588 401.663L190.154 389.035C189.723 388.682 189.222 388.423 188.685 388.275L180.263 385.952C177.657 385.233 176.5 382.188 177.971 379.919L186.543 366.705C186.844 366.24 187.239 365.843 187.702 365.539L203.954 354.859C204.316 354.621 204.636 354.326 204.904 353.986L213.691 342.792C214.351 341.951 214.647 340.881 214.513 339.82L211.846 318.734C211.638 317.088 210.435 315.741 208.823 315.349L193.935 311.728C193.321 311.578 192.75 311.285 192.271 310.872L176.058 296.911C175.373 296.321 174.908 295.517 174.739 294.628L171.139 275.731C171.047 275.248 171.045 274.752 171.133 274.267L174.577 255.328C174.838 253.892 174.296 252.428 173.164 251.508L167 246.5L151.842 235.476C150.983 234.851 150.407 233.91 150.243 232.861L146.883 211.442C146.648 209.945 145.588 208.71 144.144 208.25L124.5 202L96.8609 190.524C95.3678 189.904 94.3947 188.446 94.3947 186.83V174.926C94.3947 172.425 92.1247 170.537 89.6653 170.993L67.1864 175.162C66.0318 175.377 65.0296 176.087 64.4456 177.106L63.5546 178.66C62.895 179.811 61.708 180.56 60.3854 180.66L40.7557 182.141C38.2751 182.328 36.227 180.23 36.4746 177.754L36.9035 173.464C37.1874 170.626 34.4936 168.411 31.7634 169.238L22.7803 171.961C21.6515 172.303 20.4292 172.129 19.4403 171.486L11.987 166.642C11.3427 166.223 10.8326 165.627 10.5178 164.926L0.74324 143.155C0.270912 142.103 0.275584 140.899 0.756059 139.85L10.4506 118.699C10.8074 117.92 11.4047 117.277 12.1545 116.863L24.868 109.849C25.2859 109.618 25.7418 109.464 26.2141 109.394L36.0216 107.941C37.7853 107.68 39.1631 106.283 39.4 104.516L40.0833 99.4178L43.7276 68.7893C43.8962 67.3724 43.2972 65.9729 42.1556 65.1167L38.0369 62.0277C36.7942 61.0956 36.2035 59.5283 36.5219 58.0079L39.5549 43.5234Z" fill="#2ED3B5"/>
<mask id="mask0_1_739" style="mask-type:alpha" maskUnits="userSpaceOnUse" x="0" y="0" width="424" height="420">
<path d="M39.5549 43.5234C39.8767 41.9869 41.0675 40.7806 42.5997 40.4391L64.5551 35.545C66.0505 35.2117 67.605 35.7618 68.5578 36.9617L77.548 48.2826C79.0904 50.2249 82.0104 50.3098 83.663 48.4604L99.7555 30.4522C100.815 29.2664 101.072 27.5656 100.409 26.12L96.7533 18.1452C95.6025 15.6348 97.2816 12.7411 100.032 12.4944L116.907 10.9808C117.3 10.9456 117.686 10.8523 118.052 10.704L141.424 1.23335C141.806 1.07871 142.209 0.983925 142.62 0.952344L152.847 0.165646C154.008 0.0762928 155 0.994734 155 2.15975V12.4398C155 12.8114 154.948 13.1813 154.846 13.5387L152.154 22.9613C152.052 23.3187 152 23.6886 152 24.0602V31.9651C152 32.9532 152.366 33.9064 153.027 34.6409L158.962 41.236C160.166 42.5735 162.115 42.9426 163.724 42.1378L175 36.5L197.169 28.7889C197.717 28.5986 198.299 28.5294 198.875 28.5861L226.012 31.2553C227.534 31.405 229.009 30.6735 229.81 29.3709L239.489 13.6434C241.349 10.6199 245.933 11.3383 246.78 14.786L251.752 35.0371C252.191 36.8257 253.795 38.0833 255.637 38.0833H256.715C259.208 38.0833 261.093 40.3393 260.651 42.7929L258.749 53.345C258.342 55.6025 259.913 57.7391 262.189 58.0237L277.462 59.9328C277.819 59.9774 278.168 60.0699 278.501 60.2079L310.5 73.5L349.243 90.1742C349.742 90.3891 350.28 90.5 350.824 90.5H365.63C366.518 90.5 367.381 90.7955 368.082 91.34L399.702 115.88C400.226 116.287 400.842 116.557 401.497 116.666L413.061 118.594C414.556 118.843 415.781 119.915 416.227 121.363L423.132 143.803C423.371 144.582 423.367 145.416 423.12 146.193L415.767 169.279C415.591 169.83 415.298 170.337 414.907 170.765L386.109 202.241C385.118 203.325 383.612 203.778 382.188 203.422L381.025 203.131C378.646 202.536 376.297 204.202 376.071 206.644L373.536 234.108C373.512 234.369 373.463 234.626 373.388 234.877L361.637 274.538C361.546 274.845 361.418 275.14 361.257 275.417L347.819 298.453C347.608 298.816 347.341 299.142 347.028 299.422L334.638 310.484C333.905 311.138 332.957 311.5 331.974 311.5H310.163C309.403 311.5 308.66 311.716 308.019 312.123L278.661 330.763C277.908 331.241 277.337 331.956 277.038 332.795L270 352.5L266.315 364.937C266.109 365.633 265.717 366.259 265.183 366.749L254.693 376.365C254.237 376.783 253.884 377.3 253.663 377.877L246.764 395.813C246.589 396.267 246.334 396.686 246.009 397.048L227.478 417.717C225.029 420.449 220.5 418.716 220.5 415.046V411.09C220.5 409.514 219.574 408.085 218.136 407.44L206.485 402.217C206.163 402.073 205.862 401.887 205.588 401.663L190.154 389.035C189.723 388.682 189.222 388.423 188.685 388.275L180.263 385.952C177.657 385.233 176.5 382.188 177.971 379.919L186.543 366.705C186.844 366.24 187.239 365.843 187.702 365.539L203.954 354.859C204.316 354.621 204.636 354.326 204.904 353.986L213.691 342.792C214.351 341.951 214.647 340.881 214.513 339.82L211.846 318.734C211.638 317.088 210.435 315.741 208.823 315.349L193.935 311.728C193.321 311.578 192.75 311.285 192.271 310.872L176.058 296.911C175.373 296.321 174.908 295.517 174.739 294.628L171.139 275.731C171.047 275.248 171.045 274.752 171.133 274.267L174.577 255.328C174.838 253.892 174.296 252.428 173.164 251.508L167 246.5L151.842 235.476C150.983 234.851 150.407 233.91 150.243 232.861L146.883 211.442C146.648 209.945 145.588 208.71 144.144 208.25L124.5 202L96.8609 190.524C95.3678 189.904 94.3947 188.446 94.3947 186.83V174.926C94.3947 172.425 92.1247 170.537 89.6653 170.993L67.1864 175.162C66.0318 175.377 65.0296 176.087 64.4456 177.106L63.5546 178.66C62.895 179.811 61.708 180.56 60.3854 180.66L40.7557 182.141C38.2751 182.328 36.227 180.23 36.4746 177.754L36.9035 173.464C37.1874 170.626 34.4936 168.411 31.7634 169.238L22.7803 171.961C21.6515 172.303 20.4292 172.129 19.4403 171.486L11.987 166.642C11.3427 166.223 10.8326 165.627 10.5178 164.926L0.74324 143.155C0.270912 142.103 0.275584 140.899 0.756059 139.85L10.4506 118.699C10.8074 117.92 11.4047 117.277 12.1545 116.863L24.868 109.849C25.2859 109.618 25.7418 109.464 26.2141 109.394L36.0216 107.941C37.7853 107.68 39.1631 106.283 39.4 104.516L40.0833 99.4178L43.7276 68.7893C43.8962 67.3724 43.2972 65.9729 42.1556 65.1167L38.0369 62.0277C36.7942 61.0956 36.2035 59.5283 36.5219 58.0079L39.5549 43.5234Z" fill="#2ED3B5"/>
</mask>
<g mask="url(#mask0_1_739)">
<path d="M184.468 82.839C212.347 96.3653 235.729 155.713 271.702 162.951C307.675 170.189 319.366 125.496 353.54 125.496C377.95 125.496 401.9 171.145 413.594 197.231C418.023 207.111 414.421 218.971 405.909 224.154C395.885 230.257 383.42 224.549 378.258 212.884C371.259 197.064 360.389 178.36 347.245 175.436C323.863 170.234 306.776 225.314 257.313 208.729C207.85 192.144 197.059 128.617 172.777 125.496C148.495 122.375 139.502 143.183 124.214 181.678C117.485 198.621 111.801 214.154 107.546 226.235C103.055 238.985 89.5049 244.037 79.6027 236.399C73.4021 231.616 70.4102 223.009 72.8478 214.861C77.131 200.546 86.1989 175.21 104.429 140.06C134.106 82.8368 156.589 69.3126 184.468 82.839Z" fill="#32CDB1"/>
<path d="M353.556 125.495C341.993 125.495 333.004 130.612 324.777 137.102L321.18 140.061C321.18 140.061 339.304 137.102 350.477 137.102H376.176C368.93 130.049 361.266 125.495 353.556 125.495Z" fill="#29C7AA"/>
<path d="M378.254 212.886C383.416 224.551 395.881 230.259 405.905 224.156C414.417 218.973 418.019 207.112 413.59 197.233C409.19 187.418 403.055 174.833 395.813 162.953C395.813 162.953 394.004 172.317 383.049 180.093C376.708 184.594 373.431 189.627 371.796 193.068C370.592 195.601 371.105 198.575 372.439 201.019C374.594 204.965 376.54 209.012 378.254 212.886Z" fill="#29C7AA"/>
<path d="M257.305 208.727C286.137 218.394 303.969 203.712 318.459 190.812C318.459 190.812 284.869 201.505 256.092 189.02C227.315 176.536 213.311 173.353 213.311 173.353C224.038 188.069 237.605 202.121 257.305 208.727Z" fill="#2EC8AC"/>
<path d="M209.624 105.728C201.332 95.6381 193.117 87.0342 184.47 82.8387C167.531 74.6204 152.585 76.3878 136.807 91.8746C136.807 91.8746 138.745 91.9802 141.912 92.2178C149.035 92.7522 162.371 93.9545 173.842 96.1259C190.412 99.2628 209.624 105.728 209.624 105.728Z" fill="#29C7AA"/>
<path d="M107.546 226.238C111.801 214.157 117.485 198.625 124.214 181.682L108.422 179.932C95.3985 178.488 82.9732 186.767 77.8203 200.68C75.6737 206.476 73.7388 211.887 72.8478 214.865C70.4102 223.012 73.4021 231.62 79.6027 236.402C89.5049 244.04 103.055 238.989 107.546 226.238Z" fill="#29C7AA"/>
</g>
<ellipse cx="317" cy="291.5" rx="19" ry="6.5" fill="#27BCA1"/>
<circle cx="317" cy="257" r="10" fill="#DA2652"/>
<path d="M317 236.75C311.532 236.756 306.289 238.931 302.423 242.798C298.556 246.664 296.381 251.907 296.375 257.375C296.375 275.023 315.125 288.352 315.924 288.91C316.239 289.131 316.615 289.249 317 289.249C317.385 289.249 317.761 289.131 318.076 288.91C318.875 288.352 337.625 275.023 337.625 257.375C337.619 251.907 335.444 246.664 331.577 242.798C327.711 238.931 322.468 236.756 317 236.75ZM317 249.875C318.483 249.875 319.933 250.315 321.167 251.139C322.4 251.963 323.361 253.134 323.929 254.505C324.497 255.875 324.645 257.383 324.356 258.838C324.067 260.293 323.352 261.629 322.303 262.678C321.254 263.727 319.918 264.442 318.463 264.731C317.008 265.02 315.5 264.872 314.13 264.304C312.759 263.736 311.588 262.775 310.764 261.542C309.94 260.308 309.5 258.858 309.5 257.375C309.5 255.386 310.29 253.478 311.697 252.072C313.103 250.665 315.011 249.875 317 249.875Z" fill="#FF5780"/>
</svg>
