<svg width="67" height="67" viewBox="0 0 67 67" fill="none" xmlns="http://www.w3.org/2000/svg">
<circle cx="33" cy="34" r="28" fill="#F4CA4B"/>
<path d="M21.035 35.1851H47.3345C47.3345 35.1851 47.5826 48.0867 34.1847 48.0867C20.7869 48.0867 21.035 35.1851 21.035 35.1851Z" fill="#947E3B"/>
<mask id="mask0_1_598" style="mask-type:alpha" maskUnits="userSpaceOnUse" x="21" y="35" width="27" height="14">
<path d="M21.0364 35.1865H47.3348C47.3348 35.1865 47.5829 48.0876 34.1856 48.0876C20.7884 48.0876 21.0364 35.1865 21.0364 35.1865Z" fill="#1D8774"/>
</mask>
<g mask="url(#mask0_1_598)">
<path d="M28.7185 50.5522H44.6744C44.6744 50.5522 44.8249 42.8696 36.6964 42.8696C28.5679 42.8696 28.7185 50.5522 28.7185 50.5522Z" fill="#B39742"/>
</g>
<ellipse cx="24.4615" cy="27.9168" rx="2.56839" ry="3.42452" fill="#947E3B"/>
<ellipse cx="42.6104" cy="27.9168" rx="2.56839" ry="3.42452" fill="#947E3B"/>
<rect x="18" y="20.1042" width="7.08081" height="2.02309" rx="1" transform="rotate(-8.97339 18 20.1042)" fill="#947E3B"/>
<rect width="7.08081" height="2.02309" rx="1" transform="matrix(-0.987761 -0.155976 -0.155976 0.987761 48.5747 20.1042)" fill="#947E3B"/>
</svg>
