<svg width="405" height="165" viewBox="0 0 405 165" fill="none" xmlns="http://www.w3.org/2000/svg">
<rect x="47" y="27" width="322" height="109" rx="21" fill="#BFFCF1"/>
<path d="M80.625 52.2656C80.625 75.7812 45.758 94.8155 44.2732 95.6016C43.8818 95.8121 43.4444 95.9223 43 95.9223C42.5556 95.9223 42.1182 95.8121 41.7268 95.6016C40.242 94.8155 5.375 75.7812 5.375 52.2656C5.38122 46.7436 7.57761 41.4495 11.4823 37.5448C15.387 33.6401 20.6811 31.4437 26.2031 31.4375C33.1402 31.4375 39.214 34.4206 43 39.463C46.786 34.4206 52.8598 31.4375 59.7969 31.4375C65.3189 31.4437 70.613 33.6401 74.5177 37.5448C78.4224 41.4495 80.6188 46.7436 80.625 52.2656Z" fill="#D97F7F"/>
<path d="M399.625 113.266C399.625 136.781 364.758 155.815 363.273 156.602C362.882 156.812 362.444 156.922 362 156.922C361.556 156.922 361.118 156.812 360.727 156.602C359.242 155.815 324.375 136.781 324.375 113.266C324.381 107.744 326.578 102.449 330.482 98.5448C334.387 94.6401 339.681 92.4437 345.203 92.4375C352.14 92.4375 358.214 95.4206 362 100.463C365.786 95.4206 371.86 92.4375 378.797 92.4375C384.319 92.4437 389.613 94.6401 393.518 98.5448C397.422 102.449 399.619 107.744 399.625 113.266Z" fill="#D97F7F"/>
<circle cx="207.5" cy="81.5" r="81.5" fill="#2ED3B5"/>
<path d="M173.907 86.288H246.014C246.014 86.288 246.694 121.661 209.96 121.661C173.227 121.661 173.907 86.288 173.907 86.288Z" fill="#1D8774"/>
<mask id="mask0_1_1101" style="mask-type:alpha" maskUnits="userSpaceOnUse" x="173" y="86" width="74" height="36">
<path d="M173.907 86.288H246.01C246.01 86.288 246.69 121.659 209.958 121.659C173.227 121.659 173.907 86.288 173.907 86.288Z" fill="#1D8774"/>
</mask>
<g mask="url(#mask0_1_1101)">
<path d="M194.969 128.416H238.716C238.716 128.416 239.128 107.352 216.842 107.352C194.556 107.352 194.969 128.416 194.969 128.416Z" fill="#32AE98"/>
</g>
<ellipse cx="183.305" cy="66.3633" rx="7.04186" ry="9.38914" fill="#1D8774"/>
<ellipse cx="233.064" cy="66.3633" rx="7.04186" ry="9.38914" fill="#1D8774"/>
<rect x="165.589" y="44.9424" width="19.4137" height="5.54678" rx="1" transform="rotate(-8.97339 165.589 44.9424)" fill="#1D8774"/>
<rect width="19.4137" height="5.54678" rx="1" transform="matrix(-0.987761 -0.155976 -0.155976 0.987761 249.417 44.9424)" fill="#1D8774"/>
</svg>
