<svg width="140" height="32" viewBox="0 0 140 32" fill="none" xmlns="http://www.w3.org/2000/svg">
  <path d="M14.4 25.6C12.88 25.6 11.48 25.28 10.2 24.64C8.92 24 7.88 23.12 7.08 22C6.28 20.88 5.88 19.6 5.88 18.16H9.48C9.48 19.44 9.96 20.48 10.92 21.28C11.88 22.08 13.04 22.48 14.4 22.48C15.76 22.48 16.92 22.08 17.88 21.28C18.84 20.48 19.32 19.44 19.32 18.16H22.92C22.92 19.6 22.52 20.88 21.72 22C20.92 23.12 19.88 24 18.6 24.64C17.32 25.28 15.92 25.6 14.4 25.6Z" fill="#8970E9"/>
  <path d="M35.1758 24L31.0958 18.52H28.7358V24H25.4558V8.72H31.6558C32.9358 8.72 34.0558 8.96 35.0158 9.44C35.9758 9.92 36.7158 10.58 37.2358 11.42C37.7558 12.26 38.0158 13.22 38.0158 14.3C38.0158 15.54 37.6558 16.62 36.9358 17.54C36.2158 18.46 35.1558 19.1 33.7558 19.46L38.1758 24H35.1758ZM28.7358 15.82H31.6558C32.6958 15.82 33.4958 15.58 34.0558 15.1C34.6158 14.62 34.8958 13.94 34.8958 13.06C34.8958 12.18 34.6158 11.5 34.0558 11.02C33.4958 10.54 32.6958 10.3 31.6558 10.3H28.7358V15.82Z" fill="#8970E9"/>
  <path d="M51.809 24.24C50.369 24.24 49.069 23.9 47.909 23.22C46.749 22.54 45.829 21.6 45.149 20.4C44.489 19.18 44.159 17.8 44.159 16.26C44.159 14.74 44.499 13.38 45.179 12.18C45.879 10.96 46.819 10.02 47.999 9.36C49.179 8.68 50.489 8.34 51.929 8.34C53.369 8.34 54.679 8.68 55.859 9.36C57.039 10.02 57.969 10.96 58.649 12.18C59.349 13.38 59.699 14.74 59.699 16.26C59.699 17.78 59.339 19.16 58.619 20.4C57.919 21.6 56.969 22.54 55.769 23.22C54.589 23.9 53.269 24.24 51.809 24.24ZM51.809 21.42C52.649 21.42 53.429 21.22 54.149 20.82C54.869 20.42 55.449 19.82 55.889 19.02C56.329 18.22 56.549 17.3 56.549 16.26C56.549 15.22 56.329 14.3 55.889 13.5C55.449 12.7 54.869 12.1 54.149 11.7C53.429 11.3 52.659 11.1 51.839 11.1C51.019 11.1 50.249 11.3 49.529 11.7C48.809 12.1 48.229 12.7 47.789 13.5C47.349 14.3 47.129 15.22 47.129 16.26C47.129 17.3 47.349 18.22 47.789 19.02C48.229 19.82 48.809 20.42 49.529 20.82C50.249 21.22 51.009 21.42 51.809 21.42Z" fill="#8970E9"/>
  <path d="M71.7148 24.24C70.2748 24.24 68.9748 23.9 67.8148 23.22C66.6548 22.54 65.7348 21.6 65.0548 20.4C64.3948 19.18 64.0648 17.8 64.0648 16.26C64.0648 14.74 64.4048 13.38 65.0848 12.18C65.7848 10.96 66.7248 10.02 67.9048 9.36C69.0848 8.68 70.3948 8.34 71.8348 8.34C73.2748 8.34 74.5848 8.68 75.7648 9.36C76.9448 10.02 77.8748 10.96 78.5548 12.18C79.2548 13.38 79.6048 14.74 79.6048 16.26C79.6048 17.78 79.2448 19.16 78.5248 20.4C77.8248 21.6 76.8748 22.54 75.6748 23.22C74.4948 23.9 73.1748 24.24 71.7148 24.24ZM71.7148 21.42C72.5548 21.42 73.3348 21.22 74.0548 20.82C74.7748 20.42 75.3548 19.82 75.7948 19.02C76.2348 18.22 76.4548 17.3 76.4548 16.26C76.4548 15.22 76.2348 14.3 75.7948 13.5C75.3548 12.7 74.7748 12.1 74.0548 11.7C73.3348 11.3 72.5648 11.1 71.7448 11.1C70.9248 11.1 70.1548 11.3 69.4348 11.7C68.7148 12.1 68.1348 12.7 67.6948 13.5C67.2548 14.3 67.0348 15.22 67.0348 16.26C67.0348 17.3 67.2548 18.22 67.6948 19.02C68.1348 19.82 68.7148 20.42 69.4348 20.82C70.1548 21.22 70.9148 21.42 71.7148 21.42Z" fill="#8970E9"/>
  <path d="M90.4406 24.24C89.2206 24.24 88.1206 24 87.1406 23.52C86.1606 23.04 85.3806 22.38 84.8006 21.54C84.2206 20.7 83.9306 19.74 83.9306 18.66H87.0906C87.0906 19.46 87.3906 20.12 87.9906 20.64C88.5906 21.16 89.4006 21.42 90.4206 21.42C91.4206 21.42 92.2006 21.2 92.7606 20.76C93.3206 20.32 93.6006 19.76 93.6006 19.08C93.6006 18.36 93.2806 17.82 92.6406 17.46C92.0006 17.08 91.0206 16.72 89.7006 16.38C88.6206 16.1 87.7006 15.8 86.9406 15.48C86.1806 15.16 85.5206 14.66 84.9606 13.98C84.4006 13.3 84.1206 12.4 84.1206 11.28C84.1206 10.36 84.3806 9.52 84.9006 8.76C85.4206 8 86.1606 7.4 87.1206 6.96C88.0806 6.52 89.2006 6.3 90.4806 6.3C92.3206 6.3 93.8006 6.78 94.9206 7.74C96.0406 8.7 96.6406 9.98 96.7206 11.58H93.6606C93.6006 10.78 93.3006 10.14 92.7606 9.66C92.2206 9.16 91.4606 8.92 90.4806 8.92C89.5406 8.92 88.8006 9.12 88.2606 9.52C87.7206 9.92 87.4506 10.46 87.4506 11.14C87.4506 11.7 87.6306 12.16 87.9906 12.52C88.3506 12.86 88.7906 13.14 89.3106 13.36C89.8506 13.56 90.6006 13.8 91.5606 14.08C92.6006 14.36 93.4806 14.66 94.2006 14.98C94.9406 15.28 95.5806 15.76 96.1206 16.42C96.6606 17.08 96.9306 17.94 96.9306 19C96.9306 19.84 96.6806 20.64 96.1806 21.4C95.6806 22.16 94.9406 22.78 93.9606 23.26C92.9806 23.72 91.8006 24.24 90.4406 24.24Z" fill="#8970E9"/>
  <path d="M106.336 11.16V19.68C106.336 20.24 106.456 20.64 106.696 20.88C106.956 21.1 107.396 21.22 108.016 21.22H109.956V24H107.456C106.096 24 105.056 23.66 104.336 22.98C103.616 22.3 103.256 21.24 103.256 19.8V11.16H101.196V8.48H103.256V4.84H106.336V8.48H109.956V11.16H106.336Z" fill="#8970E9"/>
  <path d="M120.937 24.24C119.497 24.24 118.197 23.9 117.037 23.22C115.877 22.54 114.957 21.6 114.277 20.4C113.617 19.18 113.287 17.8 113.287 16.26C113.287 14.74 113.627 13.38 114.307 12.18C115.007 10.96 115.947 10.02 117.127 9.36C118.307 8.68 119.617 8.34 121.057 8.34C122.497 8.34 123.807 8.68 124.987 9.36C126.167 10.02 127.097 10.96 127.777 12.18C128.477 13.38 128.827 14.74 128.827 16.26C128.827 17.78 128.467 19.16 127.747 20.4C127.047 21.6 126.097 22.54 124.897 23.22C123.717 23.9 122.397 24.24 120.937 24.24ZM120.937 21.42C121.777 21.42 122.557 21.22 123.277 20.82C123.997 20.42 124.577 19.82 125.017 19.02C125.457 18.22 125.677 17.3 125.677 16.26C125.677 15.22 125.457 14.3 125.017 13.5C124.577 12.7 123.997 12.1 123.277 11.7C122.557 11.3 121.787 11.1 120.967 11.1C120.147 11.1 119.377 11.3 118.657 11.7C117.937 12.1 117.357 12.7 116.917 13.5C116.477 14.3 116.257 15.22 116.257 16.26C116.257 17.3 116.477 18.22 116.917 19.02C117.357 19.82 117.937 20.42 118.657 20.82C119.377 21.22 120.137 21.42 120.937 21.42Z" fill="#8970E9"/>
  <path d="M134.843 24V2.72H137.923V24H134.843Z" fill="#8970E9"/>
</svg>