<svg width="51" height="24" viewBox="0 0 51 24" fill="none" xmlns="http://www.w3.org/2000/svg">
<path d="M16.4263 0.706706C20.498 2.68227 23.9131 11.3501 29.167 12.4073C34.4209 13.4644 36.1284 6.93689 41.1197 6.93689C44.6847 6.93689 48.1828 13.604 49.8907 17.414C50.5376 18.8569 50.0115 20.5891 48.7682 21.3461C47.3042 22.2375 45.4837 21.4038 44.7298 19.7001C43.7075 17.3896 42.1199 14.6578 40.2002 14.2307C36.7852 13.471 34.2896 21.5156 27.0654 19.0933C19.8413 16.671 18.2651 7.39275 14.7187 6.93689C11.1723 6.48102 9.85887 9.52013 7.62596 15.1425C6.64318 17.617 5.81307 19.8855 5.19162 21.65C4.53573 23.5123 2.55664 24.2501 1.11039 23.1346C0.204776 22.436 -0.232195 21.1789 0.123828 19.9889C0.749391 17.8981 2.07378 14.1978 4.73631 9.06398C9.07078 0.706391 12.3545 -1.26886 16.4263 0.706706Z" fill="#F4CA4B"/>
<path d="M16.4289 0.712594C20.5007 2.68816 23.9157 11.356 29.1696 12.4132C34.4235 13.4703 36.1311 6.94278 41.1223 6.94278C44.6873 6.94278 48.1854 13.6099 49.8933 17.4199C50.5402 18.8628 50.0141 20.595 48.7709 21.352C47.3068 22.2434 45.4863 21.4097 44.7325 19.706C43.7101 17.3955 42.1225 14.6637 40.2028 14.2366C36.7878 13.4769 34.2922 21.5215 27.0681 19.0992C19.844 16.6769 18.2678 7.39864 14.7214 6.94278C11.175 6.48691 9.86152 9.52602 7.62861 15.1484C6.64584 17.6229 5.81573 19.8914 5.19428 21.6559C4.53838 23.5182 2.55929 24.256 1.11305 23.1405C0.207436 22.4419 0.303377 21.4059 0.659399 20.216C1.28496 18.1251 3.25074 14.257 5.91326 9.12322C10.2477 0.765632 12.3571 -1.26297 16.4289 0.712594Z" fill="#FFD147"/>
<path d="M41.1236 6.93848C39.4348 6.93848 38.1219 7.68579 36.9204 8.63375L36.395 9.06585C36.395 9.06585 39.0421 8.63375 40.6739 8.63375H44.4274C43.369 7.6036 42.2497 6.93848 41.1236 6.93848Z" fill="#FF5780"/>
<path d="M44.7296 19.703C45.4835 21.4067 47.304 22.2404 48.768 21.349C50.0113 20.592 50.5373 18.8598 49.8905 17.4169C49.2479 15.9833 48.3518 14.1453 47.2941 12.4102C47.2941 12.4102 47.0299 13.7778 45.4299 14.9135C44.5038 15.5709 44.0252 16.3059 43.7863 16.8085C43.6105 17.1785 43.6854 17.6129 43.8803 17.9699C44.195 18.5461 44.4793 19.1372 44.7296 19.703Z" fill="#2ED3B5"/>
<path d="M27.0656 19.0959C31.2765 20.5079 33.8809 18.3635 35.9972 16.4794C35.9972 16.4794 31.0913 18.0412 26.8883 16.2177C22.6854 14.3943 20.6401 13.9294 20.6401 13.9294C22.2068 16.0788 24.1883 18.1312 27.0656 19.0959Z" fill="#FFAB48"/>
<path d="M20.1012 4.04974C18.8901 2.57609 17.6904 1.31947 16.4274 0.706706C13.9535 -0.493593 11.7706 -0.23547 9.46606 2.02642C9.46606 2.02642 12.455 2.18918 14.8751 2.64734C17.2952 3.10549 20.1012 4.04974 20.1012 4.04974Z" fill="#E54F74"/>
<path d="M20.1012 4.04974C18.8901 2.57609 17.6904 1.31947 16.4274 0.706706C13.9535 -0.493593 11.7706 -0.23547 9.46606 2.02642C9.46606 2.02642 9.7492 2.04184 10.2117 2.07654C11.252 2.15459 13.1999 2.33019 14.8751 2.64734C17.2952 3.10549 20.1012 4.04974 20.1012 4.04974Z" fill="#E54F74"/>
<path d="M20.0991 4.04666C18.8881 2.57301 17.6883 1.31639 16.4253 0.703623C13.9514 -0.496676 12.5145 -0.188352 10.21 2.07354C11.2503 2.15159 13.1978 2.32711 14.8731 2.64426C17.2932 3.10241 20.0991 4.04666 20.0991 4.04666Z" fill="#FF5780"/>
<path d="M5.19162 21.6541C5.81307 19.8896 6.64318 17.6211 7.62596 15.1465L5.31958 14.8909C3.41741 14.6801 1.60267 15.8893 0.85007 17.9213C0.536547 18.7678 0.253955 19.558 0.123828 19.993C-0.232195 21.1829 0.204776 22.4401 1.11039 23.1386C2.55664 24.2541 4.53573 23.5163 5.19162 21.6541Z" fill="#35BFA6"/>
<path d="M5.19428 21.6543C5.81574 19.8898 6.64585 17.6213 7.62862 15.1468L5.81146 14.8596C4.20841 14.6062 2.62897 15.5089 1.87205 17.1632C1.34919 18.3059 0.827904 19.4989 0.659399 20.0621C0.303376 21.252 0.207436 22.4403 1.11305 23.1389C2.5593 24.2544 4.53839 23.5166 5.19428 21.6543Z" fill="#2ED3B5"/>
</svg>
