<svg width="86" height="73" viewBox="0 0 86 73" fill="none" xmlns="http://www.w3.org/2000/svg">
<path d="M79.6446 62.2022C79.7009 62.4369 79.7948 62.6154 79.9263 62.7375C80.0672 62.8595 80.2221 62.9488 80.3912 63.0051C80.5696 63.0521 80.748 63.0755 80.9265 63.0755C81.2552 63.0755 81.5134 63.0145 81.7013 62.8924C81.8891 62.7609 81.983 62.5966 81.983 62.3994C81.983 62.2303 81.9173 62.0988 81.7858 62.0049C81.6543 61.9016 81.4853 61.8265 81.2786 61.7795C81.072 61.7232 80.8607 61.6668 80.6447 61.6105C80.3912 61.5448 80.1188 61.4743 79.8277 61.3992C79.5459 61.3147 79.2783 61.1973 79.0247 61.047C78.7712 60.8967 78.5598 60.7042 78.3908 60.4694C78.2218 60.2253 78.1372 59.92 78.1372 59.5538C78.1372 59.1218 78.2546 58.7414 78.4894 58.4127C78.7336 58.084 79.067 57.8258 79.4896 57.6379C79.9216 57.4501 80.4193 57.3562 80.9828 57.3562C81.6496 57.3562 82.2131 57.4971 82.6733 57.7788C83.1334 58.0606 83.4668 58.4644 83.6735 58.9903L82.0816 59.4411C82.0347 59.3096 81.9548 59.2016 81.8421 59.1171C81.7294 59.0326 81.5933 58.9715 81.4336 58.934C81.2833 58.8964 81.1284 58.8776 80.9687 58.8776C80.6964 58.8776 80.471 58.934 80.2926 59.0466C80.1141 59.15 80.0249 59.2955 80.0249 59.4833C80.0249 59.596 80.0578 59.69 80.1235 59.7651C80.1893 59.8308 80.2785 59.8872 80.3912 59.9341C80.5133 59.9811 80.6494 60.0234 80.7997 60.0609C80.9593 60.0985 81.1331 60.1407 81.3209 60.1877C81.612 60.2628 81.9032 60.3521 82.1943 60.4554C82.4948 60.5493 82.7672 60.6714 83.0114 60.8216C83.2649 60.9719 83.4668 61.1738 83.6171 61.4274C83.7674 61.6809 83.8519 62.0002 83.8707 62.3853C83.8707 62.7985 83.7533 63.1742 83.5185 63.5122C83.2837 63.8409 82.9456 64.1039 82.5042 64.3011C82.0628 64.4983 81.5275 64.597 80.8983 64.597C80.1658 64.597 79.5412 64.442 79.0247 64.1321C78.5176 63.8222 78.1842 63.3385 78.0245 62.6811L79.6446 62.2022Z" fill="#595D6C"/>
<path d="M70.0467 64.4964H68.2013L66.1165 57.4529H67.9759L69.1452 62.2143L70.3848 57.4529H72.188L73.3854 62.2143L74.5405 57.4529H76.3859L74.301 64.4964H72.4134L71.2441 60.0731L70.0467 64.4964Z" fill="#595D6C"/>
<path d="M60.8195 64.597C60.1339 64.597 59.5235 64.4514 58.9882 64.1603C58.4528 63.8597 58.0302 63.4418 57.7203 62.9065C57.4198 62.3618 57.2695 61.7232 57.2695 60.9907C57.2695 60.2487 57.4245 59.6054 57.7344 59.0607C58.0537 58.516 58.4857 58.0981 59.0304 57.807C59.5751 57.5065 60.1856 57.3562 60.8617 57.3562C61.5379 57.3562 62.1484 57.5065 62.6931 57.807C63.2378 58.0981 63.6698 58.516 63.9891 59.0607C64.3084 59.596 64.468 60.23 64.468 60.9625C64.468 61.7044 64.3037 62.3477 63.975 62.8924C63.6557 63.4371 63.219 63.8597 62.6649 64.1603C62.1202 64.4514 61.505 64.597 60.8195 64.597ZM60.8054 62.9769C61.0965 62.9769 61.3736 62.9065 61.6365 62.7656C61.8995 62.6154 62.1155 62.3947 62.2845 62.1035C62.4536 61.803 62.5381 61.4227 62.5381 60.9625C62.5381 60.5211 62.4583 60.1548 62.2986 59.8637C62.139 59.5632 61.9277 59.3425 61.6647 59.2016C61.4111 59.0513 61.1341 58.9762 60.8336 58.9762C60.5424 58.9762 60.2701 59.0513 60.0165 59.2016C59.7723 59.3425 59.5751 59.5632 59.4249 59.8637C59.284 60.1548 59.2135 60.5305 59.2135 60.9907C59.2135 61.4321 59.284 61.803 59.4249 62.1035C59.5657 62.3947 59.7582 62.6154 60.0024 62.7656C60.2466 62.9065 60.5143 62.9769 60.8054 62.9769Z" fill="#595D6C"/>
<path d="M53.2383 54.3558H55.0414V64.4985H53.2383V54.3558Z" fill="#595D6C"/>
<path d="M44.1423 54.6344H51.0732V56.2262H46.0441V58.7337H49.8053V60.2692H46.0441V64.4953H44.1423V54.6344Z" fill="#595D6C"/>
<path d="M40.2007 57.4529H42.1307L37.975 67.3138H36.1578L37.4819 64.2428L34.7068 57.4529H36.7212L38.4399 62.0875L40.2007 57.4529Z" fill="#595D6C"/>
<path d="M26.6299 57.4548H28.264L28.3908 58.1733C28.6162 57.9197 28.8885 57.7225 29.2078 57.5816C29.5365 57.4313 29.8887 57.3562 30.2643 57.3562C30.8184 57.3562 31.288 57.4736 31.6731 57.7084C32.0675 57.9432 32.368 58.2859 32.5746 58.7367C32.7906 59.1781 32.8986 59.7275 32.8986 60.3849V64.4983H31.0814V60.6244C31.0814 60.0797 30.9734 59.6712 30.7574 59.3988C30.5414 59.1265 30.2174 58.9903 29.7854 58.9903C29.344 58.9903 29.0059 59.1312 28.7711 59.4129C28.5457 59.6853 28.433 60.0938 28.433 60.6385V64.4983H26.6299V57.4548Z" fill="#595D6C"/>
<path d="M22.4724 64.4983L22.3315 63.639C22.0967 63.9302 21.8291 64.1603 21.5285 64.3293C21.2374 64.4983 20.843 64.5829 20.3452 64.5829C19.8756 64.5829 19.4624 64.503 19.1056 64.3434C18.7581 64.1743 18.4857 63.9443 18.2885 63.6531C18.0913 63.3526 17.9927 63.0004 17.9927 62.5966C17.9927 62.0049 18.204 61.5166 18.6266 61.1315C19.0586 60.7371 19.7066 60.4882 20.5706 60.3849L22.3315 60.1877V59.6947C22.3315 59.4974 22.2423 59.3143 22.0638 59.1453C21.8854 58.9762 21.6037 58.8917 21.2186 58.8917C20.8805 58.8917 20.5847 58.9762 20.3311 59.1453C20.087 59.3049 19.9226 59.5491 19.8381 59.8778L18.2885 59.3143C18.4763 58.6851 18.8332 58.2014 19.3591 57.8633C19.885 57.5252 20.533 57.3562 21.3031 57.3562C22.2423 57.3562 22.9466 57.591 23.4162 58.0606C23.8952 58.5207 24.1346 59.1312 24.1346 59.8919V64.4983H22.4724ZM22.3315 61.4414L20.8101 61.6387C20.5002 61.6762 20.2654 61.7701 20.1057 61.9204C19.9461 62.0613 19.8663 62.235 19.8663 62.4416C19.8663 62.6389 19.9461 62.8079 20.1057 62.9488C20.2654 63.0802 20.4908 63.146 20.7819 63.146C21.1106 63.146 21.3877 63.0849 21.613 62.9629C21.8478 62.8408 22.0263 62.6623 22.1484 62.4275C22.2704 62.1928 22.3315 61.9016 22.3315 61.5541V61.4414Z" fill="#595D6C"/>
<path d="M6.93593 64.4953H5.03418V54.6344H7.20359L10.345 62.016L13.4864 54.6344H15.6558V64.4953H13.7541V58.128L11.0916 64.4953H9.59839L6.93593 58.128V64.4953Z" fill="#595D6C"/>
<path d="M67.4681 71.5413C67.4681 70.7633 68.0988 70.1326 68.8768 70.1326H84.3726C85.1506 70.1326 85.7813 70.7633 85.7813 71.5413C85.7813 72.3193 85.1506 72.95 84.3726 72.95H68.8768C68.0988 72.95 67.4681 72.3193 67.4681 71.5413Z" fill="#FF5780"/>
<path d="M27.9844 1.20397C34.9213 4.56962 40.7393 19.3365 49.6901 21.1375C58.6409 22.9386 61.5499 11.818 70.0531 11.818C76.1267 11.818 82.0861 23.1763 84.9959 29.6672C86.0978 32.1254 85.2016 35.0764 83.0835 36.3661C80.5894 37.8848 77.4878 36.4644 76.2035 33.5618C74.4619 29.6256 71.7571 24.9716 68.4867 24.2441C62.6687 22.9497 58.4171 36.6548 46.1098 32.5281C33.8024 28.4015 31.1172 12.5946 25.0754 11.818C19.0337 11.0413 16.796 16.2189 12.9919 25.7973C11.3176 30.0131 9.90339 33.8778 8.84466 36.8838C7.72725 40.0565 4.35559 41.3134 1.8917 39.413C0.348865 38.2229 -0.395576 36.0812 0.210958 34.054C1.27669 30.4919 3.53297 24.1879 8.06896 15.4418C15.4534 1.20344 21.0476 -2.16168 27.9844 1.20397Z" fill="#F4CA4B"/>
<path d="M27.9901 1.21449C34.9269 4.58014 40.7449 19.347 49.6957 21.1481C58.6465 22.9491 61.5554 11.8285 70.0587 11.8285C76.1323 11.8285 82.0917 23.1868 85.0014 29.6777C86.1034 32.1359 85.2072 35.0869 83.0891 36.3766C80.5949 37.8953 77.4934 36.4749 76.2091 33.5724C74.4675 29.6361 71.7627 24.9822 68.4923 24.2546C62.6743 22.9602 58.4227 36.6653 46.1154 32.5386C33.8081 28.412 31.1228 12.6051 25.0811 11.8285C19.0393 11.0518 16.8016 16.2294 12.9975 25.8078C11.3232 30.0236 9.90903 33.8883 8.8503 36.8944C7.73289 40.067 4.36124 41.324 1.89735 39.4235C0.354516 38.2335 0.517965 36.4684 1.1245 34.4412C2.19023 30.8792 5.5392 24.2893 10.0752 15.5432C17.4596 1.30485 21.0532 -2.15116 27.9901 1.21449Z" fill="#FFD147"/>
<path d="M70.059 11.8212C67.1819 11.8212 64.9452 13.0943 62.8983 14.7093L62.0032 15.4454C62.0032 15.4454 66.5129 14.7093 69.2928 14.7093H75.6874C73.8844 12.9543 71.9774 11.8212 70.059 11.8212Z" fill="#FF5780"/>
<path d="M76.2016 33.5662C77.4859 36.4687 80.5874 37.8891 83.0816 36.3704C85.1997 35.0807 86.0959 32.1297 84.9939 29.6715C83.8991 27.2293 82.3726 24.098 80.5706 21.1418C80.5706 21.1418 80.1205 23.4717 77.3946 25.4067C75.8169 26.5266 75.0015 27.7788 74.5946 28.635C74.295 29.2654 74.4226 30.0055 74.7547 30.6136C75.2909 31.5954 75.7751 32.6023 76.2016 33.5662Z" fill="#2ED3B5"/>
<path d="M46.1105 32.5311C53.2844 34.9365 57.7212 31.2832 61.3266 28.0735C61.3266 28.0735 52.9688 30.7342 45.8085 27.6277C38.6482 24.5212 35.1638 23.7292 35.1638 23.7292C37.8329 27.391 41.2086 30.8875 46.1105 32.5311Z" fill="#FFAB48"/>
<path d="M34.2444 6.8993C32.1812 4.38873 30.1372 2.24791 27.9856 1.20397C23.7709 -0.840904 20.052 -0.401156 16.126 3.45229C16.126 3.45229 21.2181 3.72958 25.3411 4.51011C29.4641 5.29064 34.2444 6.8993 34.2444 6.8993Z" fill="#E54F74"/>
<path d="M34.2444 6.8993C32.1812 4.38873 30.1372 2.24791 27.9856 1.20397C23.7709 -0.840904 20.052 -0.401156 16.126 3.45229C16.126 3.45229 16.6083 3.47856 17.3963 3.53768C19.1686 3.67065 22.487 3.96981 25.3411 4.51011C29.4641 5.29064 34.2444 6.8993 34.2444 6.8993Z" fill="#E54F74"/>
<path d="M34.2436 6.89454C32.1804 4.38397 30.1364 2.24315 27.9847 1.19921C23.7701 -0.845667 21.322 -0.320394 17.396 3.53305C19.1683 3.66602 22.4862 3.96505 25.3402 4.50535C29.4633 5.28588 34.2436 6.89454 34.2436 6.89454Z" fill="#FF5780"/>
<path d="M8.84466 36.891C9.90339 33.885 11.3176 30.0202 12.9919 25.8045L9.06265 25.369C5.82204 25.0099 2.73037 27.0699 1.44821 30.5317C0.914083 31.9738 0.432648 33.3202 0.210958 34.0611C-0.395576 36.0883 0.348865 38.2301 1.8917 39.4201C4.35559 41.3206 7.72725 40.0637 8.84466 36.891Z" fill="#35BFA6"/>
<path d="M8.85031 36.8878C9.90904 33.8817 11.3232 30.017 12.9975 25.8012L9.90176 25.312C7.17073 24.8804 4.47994 26.4182 3.19041 29.2365C2.29966 31.1833 1.41157 33.2157 1.1245 34.1752C0.517964 36.2024 0.354517 38.2269 1.89735 39.4169C4.36124 41.3174 7.7329 40.0604 8.85031 36.8878Z" fill="#2ED3B5"/>
</svg>
