<svg width="100" height="23" viewBox="0 0 100 23" fill="none" xmlns="http://www.w3.org/2000/svg">
<path d="M91.6269 9.6338C91.6961 9.92213 91.8115 10.1413 91.9729 10.2912C92.1459 10.4411 92.3362 10.5507 92.5438 10.6199C92.763 10.6776 92.9821 10.7064 93.2012 10.7064C93.6049 10.7064 93.9221 10.6314 94.1527 10.4815C94.3834 10.32 94.4987 10.1182 94.4987 9.876C94.4987 9.6684 94.418 9.50693 94.2565 9.3916C94.0951 9.26473 93.8875 9.17246 93.6337 9.1148C93.38 9.0456 93.1205 8.9764 92.8552 8.9072C92.5438 8.82647 92.2094 8.73997 91.8518 8.6477C91.5058 8.5439 91.1772 8.39973 90.8658 8.2152C90.5544 8.03067 90.2949 7.79424 90.0873 7.5059C89.8797 7.20604 89.7759 6.83121 89.7759 6.38141C89.7759 5.85088 89.92 5.38378 90.2084 4.98011C90.5082 4.57645 90.9176 4.25928 91.4366 4.02862C91.9672 3.79795 92.5784 3.68262 93.2704 3.68262C94.0893 3.68262 94.7813 3.85562 95.3464 4.20161C95.9116 4.54761 96.321 5.04355 96.5747 5.68941L94.6198 6.24301C94.5622 6.08154 94.4641 5.94891 94.3257 5.84511C94.1873 5.74131 94.0201 5.66634 93.824 5.62021C93.6395 5.57408 93.4492 5.55101 93.2531 5.55101C92.9187 5.55101 92.6419 5.62021 92.4227 5.75861C92.2036 5.88548 92.094 6.06424 92.094 6.29491C92.094 6.43331 92.1344 6.54864 92.2151 6.64091C92.2959 6.72164 92.4054 6.79084 92.5438 6.84851C92.6938 6.90617 92.861 6.95807 93.0455 7.00421C93.2416 7.05034 93.455 7.10224 93.6856 7.1599C94.0432 7.25217 94.4007 7.36174 94.7582 7.4886C95.1273 7.60394 95.4618 7.75387 95.7616 7.9384C96.073 8.12293 96.321 8.3709 96.5055 8.6823C96.6901 8.9937 96.7939 9.38583 96.8169 9.85869C96.8169 10.3662 96.6728 10.8275 96.3844 11.2427C96.0961 11.6464 95.6809 11.9693 95.1388 12.2115C94.5968 12.4537 93.9394 12.5748 93.1666 12.5748C92.267 12.5748 91.5001 12.3845 90.8658 12.0039C90.243 11.6233 89.8335 11.0293 89.6375 10.222L91.6269 9.6338Z" fill="#595D6C"/>
<path d="M79.8382 12.4532H77.5719L75.0115 3.80322H77.2951L78.731 9.6506L80.2534 3.80322H82.4677L83.9382 9.6506L85.3568 3.80322H87.6231L85.0627 12.4532H82.7445L81.3087 7.02101L79.8382 12.4532Z" fill="#595D6C"/>
<path d="M68.5088 12.5748C67.6668 12.5748 66.9172 12.396 66.2598 12.0385C65.6024 11.6694 65.0834 11.1562 64.7028 10.4988C64.3337 9.82986 64.1492 9.0456 64.1492 8.146C64.1492 7.23487 64.3395 6.44484 64.7201 5.77591C65.1122 5.10698 65.6427 4.59375 66.3117 4.23622C66.9806 3.86715 67.7303 3.68262 68.5607 3.68262C69.3911 3.68262 70.1407 3.86715 70.8096 4.23622C71.4786 4.59375 72.0091 5.10698 72.4012 5.77591C72.7934 6.43331 72.9894 7.2118 72.9894 8.1114C72.9894 9.02253 72.7876 9.81256 72.3839 10.4815C71.9918 11.1504 71.4555 11.6694 70.775 12.0385C70.1061 12.396 69.3507 12.5748 68.5088 12.5748ZM68.4915 10.5853C68.849 10.5853 69.1892 10.4988 69.5122 10.3258C69.8351 10.1413 70.1004 9.87023 70.3079 9.5127C70.5155 9.14363 70.6193 8.67653 70.6193 8.1114C70.6193 7.56934 70.5213 7.11954 70.3252 6.76201C70.1292 6.39294 69.8697 6.12191 69.5468 5.94891C69.2354 5.76438 68.8951 5.67211 68.5261 5.67211C68.1685 5.67211 67.8341 5.76438 67.5227 5.94891C67.2228 6.12191 66.9806 6.39294 66.7961 6.76201C66.6231 7.11954 66.5366 7.58087 66.5366 8.146C66.5366 8.68807 66.6231 9.14363 66.7961 9.5127C66.9691 9.87023 67.2055 10.1413 67.5054 10.3258C67.8052 10.4988 68.1339 10.5853 68.4915 10.5853Z" fill="#595D6C"/>
<path d="M59.1987 0H61.4131V12.456H59.1987V0Z" fill="#595D6C"/>
<path d="M48.0273 0.343018H56.5389V2.29791H50.3628V5.3773H54.9819V7.26299H50.3628V12.453H48.0273V0.343018Z" fill="#595D6C"/>
<path d="M43.1867 3.80322H45.5568L40.4533 15.9132H38.2216L39.8478 12.1418L36.4397 3.80322H38.9136L41.0242 9.4949L43.1867 3.80322Z" fill="#595D6C"/>
<path d="M26.5203 3.80372H28.5271L28.6828 4.68601C28.9596 4.37461 29.294 4.13242 29.6862 3.95942C30.0898 3.77488 30.5223 3.68262 30.9836 3.68262C31.6641 3.68262 32.2408 3.82678 32.7136 4.11512C33.198 4.40345 33.5671 4.82441 33.8208 5.37801C34.0861 5.92008 34.2187 6.59477 34.2187 7.4021V12.4537H31.987V7.6962C31.987 7.02727 31.8544 6.52557 31.5891 6.19111C31.3239 5.85664 30.926 5.68941 30.3954 5.68941C29.8534 5.68941 29.4382 5.86241 29.1499 6.20841C28.8731 6.54287 28.7347 7.04457 28.7347 7.7135V12.4537H26.5203V3.80372Z" fill="#595D6C"/>
<path d="M21.4135 12.4537L21.2405 11.3984C20.9522 11.7559 20.6235 12.0385 20.2544 12.2461C19.8969 12.4537 19.4125 12.5575 18.8012 12.5575C18.2245 12.5575 17.7171 12.4595 17.2788 12.2634C16.8521 12.0558 16.5176 11.7732 16.2754 11.4157C16.0332 11.0466 15.9121 10.6141 15.9121 10.1182C15.9121 9.3916 16.1716 8.79187 16.6906 8.319C17.2211 7.8346 18.0169 7.52897 19.078 7.4021L21.2405 7.1599V6.55441C21.2405 6.31221 21.1309 6.08731 20.9118 5.87971C20.6927 5.67211 20.3467 5.56831 19.8738 5.56831C19.4586 5.56831 19.0953 5.67211 18.7839 5.87971C18.484 6.07578 18.2822 6.37564 18.1784 6.77931L16.2754 6.08731C16.5061 5.31458 16.9443 4.72061 17.5902 4.30542C18.2361 3.89022 19.0319 3.68262 19.9776 3.68262C21.1309 3.68262 21.9959 3.97095 22.5726 4.54761C23.1608 5.11275 23.4549 5.86241 23.4549 6.79661V12.4537H21.4135ZM21.2405 8.6996L19.3721 8.9418C18.9915 8.98793 18.7032 9.10326 18.5071 9.2878C18.311 9.4608 18.213 9.67416 18.213 9.92789C18.213 10.1701 18.311 10.3777 18.5071 10.5507C18.7032 10.7122 18.98 10.7929 19.3375 10.7929C19.7412 10.7929 20.0814 10.7179 20.3582 10.568C20.6465 10.4181 20.8657 10.1989 21.0156 9.91059C21.1655 9.62226 21.2405 9.26473 21.2405 8.838V8.6996Z" fill="#595D6C"/>
<path d="M2.33549 12.453H0V0.343018H2.66419L6.52208 9.40819L10.38 0.343018H13.0442V12.453H10.7087V4.6334L7.43897 12.453H5.60518L2.33549 4.6334V12.453Z" fill="#595D6C"/>
<path d="M76.675 21.105C76.675 20.1495 77.4496 19.375 78.405 19.375H97.435C98.3904 19.375 99.165 20.1495 99.165 21.105V21.105C99.165 22.0604 98.3904 22.835 97.435 22.835H78.405C77.4496 22.835 76.675 22.0604 76.675 21.105V21.105Z" fill="#FF5780"/>
</svg>
